<?xml version="1.0" encoding="UTF-8" standalone="no"?>
<!-- Created with Inkscape (http://www.inkscape.org/) -->

<svg
   xmlns:dc="http://purl.org/dc/elements/1.1/"
   xmlns:cc="http://creativecommons.org/ns#"
   xmlns:rdf="http://www.w3.org/1999/02/22-rdf-syntax-ns#"
   xmlns:svg="http://www.w3.org/2000/svg"
   xmlns="http://www.w3.org/2000/svg"
   xmlns:sodipodi="http://sodipodi.sourceforge.net/DTD/sodipodi-0.dtd"
   xmlns:inkscape="http://www.inkscape.org/namespaces/inkscape"
   version="1.1"
   id="svg1646"
   xml:space="preserve"
   width="800"
   height="800"
   viewBox="0 0 800 800"
   sodipodi:docname="panda-clipart-svg.svg"
   inkscape:version="0.92.4 (5da689c313, 2019-01-14)"><metadata
     id="metadata1652"><rdf:RDF><cc:Work
         rdf:about=""><dc:format>image/svg+xml</dc:format><dc:type
           rdf:resource="http://purl.org/dc/dcmitype/StillImage" /><dc:title></dc:title></cc:Work></rdf:RDF></metadata><defs
     id="defs1650"><clipPath
       clipPathUnits="userSpaceOnUse"
       id="clipPath1662"><path
         d="M 0,600 H 600 V 0 H 0 Z"
         id="path1660"
         inkscape:connector-curvature="0" /></clipPath></defs><sodipodi:namedview
     pagecolor="#ffffff"
     bordercolor="#666666"
     borderopacity="1"
     objecttolerance="10"
     gridtolerance="10"
     guidetolerance="10"
     inkscape:pageopacity="0"
     inkscape:pageshadow="2"
     inkscape:window-width="1920"
     inkscape:window-height="1018"
     id="namedview1648"
     showgrid="false"
     inkscape:zoom="0.70155462"
     inkscape:cx="642.37288"
     inkscape:cy="333.89831"
     inkscape:window-x="-8"
     inkscape:window-y="-8"
     inkscape:window-maximized="1"
     inkscape:current-layer="g1654" /><g
     id="g1654"
     inkscape:groupmode="layer"
     inkscape:label="panda-graphics-publicdomainvectors.org"
     transform="matrix(1.3333333,0,0,-1.3333333,0,800)"><g
       id="g1656"><g
         id="g1658"
         clip-path="url(#clipPath1662)"><path
           d="m 506.624,201.974 c 9.667,-7.106 6.764,-9.251 6.764,-9.251 0,0 3.588,-1.924 7.021,0.775 1.233,4.239 -17.972,11.553 -13.785,8.476 m 0.579,-12.787 c 0.106,7.117 -11.324,9.235 -14.68,10.641 13.374,-8.476 6.43,-11.552 6.43,-11.552 0,0 5.652,-1.33 8.25,0.911 m -29.428,5.815 c 11.093,-7.127 5.395,-11.843 5.395,-11.843 0,0 3.76,-3.493 7.549,0.833 1.252,6.358 -12.241,11.089 -12.944,11.01 m -7.94,62.383 c 0.86,0.984 1.715,2.058 2.572,3.242 -0.451,0.023 -0.953,0.07 -1.532,0.146 -11.766,1.574 -19.208,7.915 -16.346,9.649 4.921,2.98 15.712,0.764 24.277,-1.642 1.731,0.979 3.841,1.409 6.149,1.871 3.903,0.784 8.427,1.694 12.985,5.596 -4.495,2.419 -13.674,8.216 -10.769,10.769 5.094,4.472 13.446,6.624 17.973,6.536 -1.563,3.873 -4.802,8.393 -8.648,13.758 -5.118,7.132 -11.482,16.012 -16.601,27.141 -2.751,5.975 -4.035,12.666 -5.393,19.749 -3.513,18.333 -7.498,39.11 -38.656,56.71 -28.683,16.197 -56.348,18.577 -78.575,20.489 -14.76,1.269 -27.521,2.367 -37.017,7.158 -78.309,12.069 -137.561,3.392 -176.107,-25.786 -42.458,-32.146 -48.999,-80.377 -51.96,-104.547 0.414,0.391 0.832,0.755 1.257,1.074 23.826,17.806 75.016,-11.181 84.455,-33.832 7.882,-7.458 19.114,-17.331 31.793,-22.3 0.597,13.512 1.827,27.648 3.321,41.779 5.564,52.647 36.699,118.334 62.376,130.406 25.678,12.073 47.607,19.466 31.213,6.996 -35.406,-26.93 4.06,-140.281 24.115,-160.813 0,0 12.587,8.495 34.976,5.28 16.341,-16.214 68.102,-33.574 104.142,-19.429 m -202.722,-85.62 c 11.093,-7.126 5.394,-11.842 5.394,-11.842 0,0 3.761,-3.496 7.549,0.832 1.253,6.355 -12.241,11.087 -12.943,11.01 m -118.462,36.622 c 8.838,-5.602 4.248,-7.635 4.248,-7.635 0,0 3.738,-0.88 5.454,0.601 0.068,4.706 -7.486,6.104 -9.702,7.034 m 10.136,4.995 c 6.391,-4.698 3.448,-7.837 3.448,-7.837 0,0 2.372,-1.271 4.641,0.514 0.814,2.801 -10.854,9.354 -8.089,7.323 m -23.596,-8.596 c 7.332,-4.71 3.565,-7.826 3.565,-7.826 0,0 2.486,-2.31 4.988,0.549 0.829,4.205 -8.09,7.328 -8.553,7.277 m 152.288,-27.577 c 13.374,-8.475 6.428,-11.55 6.428,-11.55 0,0 5.655,-1.332 8.251,0.908 0.104,7.12 -11.324,9.237 -14.679,10.642 m 15.337,7.556 c 9.669,-7.107 5.217,-11.851 5.217,-11.851 0,0 3.588,-1.927 7.022,0.774 1.232,4.241 -16.424,14.153 -12.239,11.077 m 211.7,2.562 c 0,0 -4.373,-5.457 -13.11,-3.577 0.542,-4.916 -9.454,-17.392 -63.939,-6.697 -2.406,15.37 -40.154,32.176 -54.419,48.724 -14.262,16.55 -3.915,29.065 -24.279,42.924 -20.364,13.859 -75.216,-26.89 -75.511,-53.222 -0.294,-26.328 35.768,-27.861 35.095,-41.081 -0.181,-3.529 -8.021,-7.604 -13.403,-7.133 1.983,-5.322 -9.981,-14.459 -22.303,-9.068 -7.338,-7.561 -34.47,-8.066 -55.831,11.612 -14.655,13.501 -18.317,42.601 -17.375,76.541 l -2.648,-0.567 c -2.878,-6.943 0.543,-45.429 0.543,-45.429 0,0 1.659,-6.45 -13.886,1.311 -15.121,7.548 -16.201,34.142 -9.534,49.839 0.187,0.439 0.326,0.901 0.578,1.295 3.668,5.692 1.301,9.106 -5.427,12.998 -0.38,-1.551 -1.085,-3.013 -2.161,-4.356 -40.817,-11.731 -21.911,-38.139 -7.553,-49.641 4.426,-3.545 -1.332,-22.302 -31.496,-19.468 -30.164,2.833 -56.47,49.628 -59.948,59.668 -3.002,8.666 1.851,38.399 10.926,52.12 0.126,0.997 0.256,2.06 0.394,3.191 2.941,24.114 9.064,74.288 53.213,107.71 39.216,29.691 99.264,38.537 178.466,26.293 l 0.427,-0.138 c 9.026,-4.625 21.609,-5.707 36.18,-6.961 12.566,-1.081 26.849,-2.313 42.099,-6.061 14.273,12.001 27.482,13.075 36.09,-13.905 -0.05,0.015 -0.101,0.03 -0.15,0.043 0.559,-0.305 1.117,-0.606 1.677,-0.922 32.302,-18.244 36.418,-39.703 40.048,-58.639 1.325,-6.908 2.575,-13.436 5.184,-19.099 5.007,-10.884 11.283,-19.639 16.329,-26.677 7.405,-10.327 12.755,-17.79 8.963,-24.639 -7.447,-13.468 -16.001,-15.181 -22.245,-16.435 -3.374,-0.678 -5.81,-1.166 -7.079,-3.246 -2.149,-3.526 -4.206,-6.438 -6.311,-8.85 -1.406,-11.514 3.726,-27.396 22.73,-44.683 15.538,-2.197 27.284,-9.074 27.671,-12.583 0.387,-3.513 2.619,-12.467 -8.005,-11.192 m -58.973,155.547 c -23.19,8.341 -24.622,-21.927 -32.38,-37.213 -9.342,-18.407 29.69,-7.149 41.71,-0.139 12.022,7.013 13.858,29.013 -9.33,37.352 m -73.094,44.06 c 7.614,-13.182 -35.897,-64.232 -48.875,-46.616 -46.812,63.544 37.872,77.622 48.875,46.616"
           style="fill:#000000;fill-opacity:1;fill-rule:nonzero;stroke:none"
           id="path1664"
           inkscape:connector-curvature="0" /><path
           d="m 267.113,171.765 c 11.092,-7.126 5.394,-11.842 5.394,-11.842 0,0 3.762,-3.496 7.548,0.832 1.253,6.355 -12.24,11.087 -12.942,11.01"
           style="fill:#ffffff;fill-opacity:1;fill-rule:nonzero;stroke:none"
           id="path1666"
           inkscape:connector-curvature="0" /><path
           d="m 293.907,165.659 c 0,0 5.655,-1.331 8.25,0.908 0.104,7.12 -11.323,9.238 -14.678,10.642 13.374,-8.475 6.428,-11.55 6.428,-11.55"
           style="fill:#ffffff;fill-opacity:1;fill-rule:nonzero;stroke:none"
           id="path1668"
           inkscape:connector-curvature="0" /><path
           d="m 302.816,184.765 c 9.668,-7.107 5.217,-11.851 5.217,-11.851 0,0 3.588,-1.927 7.022,0.774 1.231,4.241 -16.425,14.153 -12.239,11.077"
           style="fill:#ffffff;fill-opacity:1;fill-rule:nonzero;stroke:none"
           id="path1670"
           inkscape:connector-curvature="0" /><path
           d="m 477.775,195.002 c 11.093,-7.127 5.395,-11.843 5.395,-11.843 0,0 3.76,-3.493 7.549,0.833 1.252,6.358 -12.241,11.089 -12.944,11.01"
           style="fill:#ffffff;fill-opacity:1;fill-rule:nonzero;stroke:none"
           id="path1672"
           inkscape:connector-curvature="0" /><path
           d="m 492.523,199.829 c 13.374,-8.477 6.43,-11.553 6.43,-11.553 0,0 5.652,-1.33 8.25,0.911 0.106,7.117 -11.324,9.235 -14.68,10.642"
           style="fill:#ffffff;fill-opacity:1;fill-rule:nonzero;stroke:none"
           id="path1674"
           inkscape:connector-curvature="0" /><path
           d="m 506.624,201.974 c 9.667,-7.106 6.764,-9.251 6.764,-9.251 0,0 3.588,-1.924 7.021,0.775 1.233,4.239 -17.972,11.553 -13.785,8.476"
           style="fill:#ffffff;fill-opacity:1;fill-rule:nonzero;stroke:none"
           id="path1676"
           inkscape:connector-curvature="0" /><path
           d="m 135.191,204.786 c 7.333,-4.71 3.565,-7.826 3.565,-7.826 0,0 2.486,-2.31 4.988,0.549 0.829,4.205 -8.09,7.328 -8.553,7.277"
           style="fill:#ffffff;fill-opacity:1;fill-rule:nonzero;stroke:none"
           id="path1678"
           inkscape:connector-curvature="0" /><path
           d="m 152.899,200.752 c 0,0 3.738,-0.88 5.454,0.601 0.067,4.706 -7.486,6.104 -9.702,7.034 8.838,-5.602 4.248,-7.635 4.248,-7.635"
           style="fill:#ffffff;fill-opacity:1;fill-rule:nonzero;stroke:none"
           id="path1680"
           inkscape:connector-curvature="0" /><path
           d="m 158.787,213.382 c 6.391,-4.698 3.448,-7.837 3.448,-7.837 0,0 2.372,-1.271 4.641,0.514 0.814,2.801 -10.854,9.354 -8.089,7.323"
           style="fill:#ffffff;fill-opacity:1;fill-rule:nonzero;stroke:none"
           id="path1682"
           inkscape:connector-curvature="0" /></g></g></g></svg>